<?xml version="1.0" encoding="UTF-8" standalone="no"?>
<svg
   xmlns:dc="http://purl.org/dc/elements/1.1/"
   xmlns:cc="http://creativecommons.org/ns#"
   xmlns:rdf="http://www.w3.org/1999/02/22-rdf-syntax-ns#"
   xmlns:svg="http://www.w3.org/2000/svg"
   xmlns="http://www.w3.org/2000/svg"
   xmlns:sodipodi="http://sodipodi.sourceforge.net/DTD/sodipodi-0.dtd"
   xmlns:inkscape="http://www.inkscape.org/namespaces/inkscape"
   width="761.35858"
   height="373.28741"
   viewBox="0 0 214.87231 105.35"
   version="1.1"
   id="svg2"
   inkscape:version="0.48.5 r10040"
   sodipodi:docname="flattened.svg">
  <metadata
     id="metadata166">
    <rdf:RDF>
      <cc:Work
         rdf:about="">
        <dc:format>image/svg+xml</dc:format>
        <dc:type
           rdf:resource="http://purl.org/dc/dcmitype/StillImage" />
      </cc:Work>
    </rdf:RDF>
  </metadata>
  <defs
     id="defs164" />
  <sodipodi:namedview
     pagecolor="#ffffff"
     bordercolor="#666666"
     borderopacity="1"
     objecttolerance="10"
     gridtolerance="10"
     guidetolerance="10"
     inkscape:pageopacity="0"
     inkscape:pageshadow="2"
     inkscape:window-width="1920"
     inkscape:window-height="1146"
     id="namedview162"
     showgrid="false"
     inkscape:document-units="mm"
     inkscape:zoom="1.162158"
     inkscape:cx="583.25481"
     inkscape:cy="174.47193"
     inkscape:window-x="0"
     inkscape:window-y="54"
     inkscape:window-maximized="0"
     inkscape:current-layer="svg2"
     fit-margin-top="0"
     fit-margin-left="0"
     fit-margin-right="0"
     fit-margin-bottom="0" />
  <g
     transform="matrix(1,0,0,-1,55.175,50.300418)"
     id="g4">
    <path
       id="DWire"
       d="m 10,50 10,0 0,-4 10,0 0,4 10,0 0,-4 6,0 0,-6 4,0 0,-10 -4,0 0,-10 4,0 0,-10 -4,0 0,-6 -6,0 0,-4 -10,0 0,4 -10,0 0,-4 -10,0 0,4 -6,0 0,6 -4,0 0,10 4,0 0,10 -4,0 0,10 4,0 0,6 6,0 0,4"
       style="fill:none;stroke:#ff0000;stroke-width:0.34999999;stroke-miterlimit:4;stroke-dasharray:none"
       inkscape:connector-curvature="0" />
  </g>
  <g
     transform="matrix(1,0,0,-1,55.175,50.300418)"
     id="g7">
    <path
       id="DWire001"
       d="m -45,50 10,0 0,-4 10,0 0,4 10,0 0,-4 6,0 0,-6 4,0 0,-10 -4,0 0,-10 4,0 0,-10 -4,0 0,-6 -6,0 0,-4 -10,0 0,4 -10,0 0,-4 -10,0 0,4 -6,0 0,6 -4,0 0,10 4,0 0,10 -4,0 0,10 4,0 0,6 6,0 0,4"
       style="fill:none;stroke:#ff0000;stroke-width:0.34999999;stroke-miterlimit:4;stroke-dasharray:none"
       inkscape:connector-curvature="0" />
  </g>
  <g
     transform="matrix(1,0,0,-1,164.69731,-4.8250016)"
     id="g10">
    <path
       id="Shape2DView"
       d="m -55,-55 0,10"
       style="fill:none;stroke:#ff0000;stroke-width:0.34999999;stroke-miterlimit:4;stroke-dasharray:none"
       inkscape:connector-curvature="0" />
    <path
       id="path13"
       d="m -51,-45 0,10"
       style="fill:none;stroke:#ff0000;stroke-width:0.34999999;stroke-miterlimit:4;stroke-dasharray:none"
       inkscape:connector-curvature="0" />
    <path
       id="path15"
       d="m -51,-25 0,10"
       style="fill:none;stroke:#ff0000;stroke-width:0.34999999;stroke-miterlimit:4;stroke-dasharray:none"
       inkscape:connector-curvature="0" />
    <path
       id="path17"
       d="m -55,-15 0,10"
       style="fill:none;stroke:#ff0000;stroke-width:0.34999999;stroke-miterlimit:4;stroke-dasharray:none"
       inkscape:connector-curvature="0" />
    <path
       id="path19"
       d="m -45,-5 -10,0"
       style="fill:none;stroke:#ff0000;stroke-width:0.34999999;stroke-miterlimit:4;stroke-dasharray:none"
       inkscape:connector-curvature="0" />
    <path
       id="path21"
       d="m -45,-9 0,4"
       style="fill:none;stroke:#ff0000;stroke-width:0.34999999;stroke-miterlimit:4;stroke-dasharray:none"
       inkscape:connector-curvature="0" />
    <path
       id="path23"
       d="m -35,-9 -10,0"
       style="fill:none;stroke:#ff0000;stroke-width:0.34999999;stroke-miterlimit:4;stroke-dasharray:none"
       inkscape:connector-curvature="0" />
    <path
       id="path25"
       d="m -35,-9 0,4"
       style="fill:none;stroke:#ff0000;stroke-width:0.34999999;stroke-miterlimit:4;stroke-dasharray:none"
       inkscape:connector-curvature="0" />
    <path
       id="path27"
       d="m -25,-5 -10,0"
       style="fill:none;stroke:#ff0000;stroke-width:0.34999999;stroke-miterlimit:4;stroke-dasharray:none"
       inkscape:connector-curvature="0" />
    <path
       id="path29"
       d="m -25,-9 0,4"
       style="fill:none;stroke:#ff0000;stroke-width:0.34999999;stroke-miterlimit:4;stroke-dasharray:none"
       inkscape:connector-curvature="0" />
    <path
       id="path31"
       d="m -15,-9 -10,0"
       style="fill:none;stroke:#ff0000;stroke-width:0.34999999;stroke-miterlimit:4;stroke-dasharray:none"
       inkscape:connector-curvature="0" />
    <path
       id="path33"
       d="m -15,-9 0,4"
       style="fill:none;stroke:#ff0000;stroke-width:0.34999999;stroke-miterlimit:4;stroke-dasharray:none"
       inkscape:connector-curvature="0" />
    <path
       id="path35"
       d="m -5,-5 -10,0"
       style="fill:none;stroke:#ff0000;stroke-width:0.34999999;stroke-miterlimit:4;stroke-dasharray:none"
       inkscape:connector-curvature="0" />
    <path
       id="path37"
       d="m -5,-15 0,10"
       style="fill:none;stroke:#ff0000;stroke-width:0.34999999;stroke-miterlimit:4;stroke-dasharray:none"
       inkscape:connector-curvature="0" />
    <path
       id="path39"
       d="m -9,-15 4,0"
       style="fill:none;stroke:#ff0000;stroke-width:0.34999999;stroke-miterlimit:4;stroke-dasharray:none"
       inkscape:connector-curvature="0" />
    <path
       id="path41"
       d="m -9,-25 0,10"
       style="fill:none;stroke:#ff0000;stroke-width:0.34999999;stroke-miterlimit:4;stroke-dasharray:none"
       inkscape:connector-curvature="0" />
    <path
       id="path43"
       d="m -9,-25 4,0"
       style="fill:none;stroke:#ff0000;stroke-width:0.34999999;stroke-miterlimit:4;stroke-dasharray:none"
       inkscape:connector-curvature="0" />
    <path
       id="path45"
       d="m -5,-35 0,10"
       style="fill:none;stroke:#ff0000;stroke-width:0.34999999;stroke-miterlimit:4;stroke-dasharray:none"
       inkscape:connector-curvature="0" />
    <path
       id="path47"
       d="m -9,-35 4,0"
       style="fill:none;stroke:#ff0000;stroke-width:0.34999999;stroke-miterlimit:4;stroke-dasharray:none"
       inkscape:connector-curvature="0" />
    <path
       id="path49"
       d="m -9,-45 0,10"
       style="fill:none;stroke:#ff0000;stroke-width:0.34999999;stroke-miterlimit:4;stroke-dasharray:none"
       inkscape:connector-curvature="0" />
    <path
       id="path51"
       d="m -9,-45 4,0"
       style="fill:none;stroke:#ff0000;stroke-width:0.34999999;stroke-miterlimit:4;stroke-dasharray:none"
       inkscape:connector-curvature="0" />
    <path
       id="path53"
       d="m -5,-55 0,10"
       style="fill:none;stroke:#ff0000;stroke-width:0.34999999;stroke-miterlimit:4;stroke-dasharray:none"
       inkscape:connector-curvature="0" />
    <path
       id="path55"
       d="m -5,-55 -10,0"
       style="fill:none;stroke:#ff0000;stroke-width:0.34999999;stroke-miterlimit:4;stroke-dasharray:none"
       inkscape:connector-curvature="0" />
    <path
       id="path57"
       d="m -15,-55 0,4"
       style="fill:none;stroke:#ff0000;stroke-width:0.34999999;stroke-miterlimit:4;stroke-dasharray:none"
       inkscape:connector-curvature="0" />
    <path
       id="path59"
       d="m -15,-51 -10,0"
       style="fill:none;stroke:#ff0000;stroke-width:0.34999999;stroke-miterlimit:4;stroke-dasharray:none"
       inkscape:connector-curvature="0" />
    <path
       id="path61"
       d="m -25,-55 0,4"
       style="fill:none;stroke:#ff0000;stroke-width:0.34999999;stroke-miterlimit:4;stroke-dasharray:none"
       inkscape:connector-curvature="0" />
    <path
       id="path63"
       d="m -25,-55 -10,0"
       style="fill:none;stroke:#ff0000;stroke-width:0.34999999;stroke-miterlimit:4;stroke-dasharray:none"
       inkscape:connector-curvature="0" />
    <path
       id="path65"
       d="m -35,-55 0,4"
       style="fill:none;stroke:#ff0000;stroke-width:0.34999999;stroke-miterlimit:4;stroke-dasharray:none"
       inkscape:connector-curvature="0" />
    <path
       id="path67"
       d="m -35,-51 -10,0"
       style="fill:none;stroke:#ff0000;stroke-width:0.34999999;stroke-miterlimit:4;stroke-dasharray:none"
       inkscape:connector-curvature="0" />
    <path
       id="path69"
       d="m -45,-55 0,4"
       style="fill:none;stroke:#ff0000;stroke-width:0.34999999;stroke-miterlimit:4;stroke-dasharray:none"
       inkscape:connector-curvature="0" />
    <path
       id="path71"
       d="m -45,-55 -10,0"
       style="fill:none;stroke:#ff0000;stroke-width:0.34999999;stroke-miterlimit:4;stroke-dasharray:none"
       inkscape:connector-curvature="0" />
    <path
       id="path73"
       d="m -55,-45 4,0"
       style="fill:none;stroke:#ff0000;stroke-width:0.34999999;stroke-miterlimit:4;stroke-dasharray:none"
       inkscape:connector-curvature="0" />
    <path
       id="path75"
       d="m -55,-35 4,0"
       style="fill:none;stroke:#ff0000;stroke-width:0.34999999;stroke-miterlimit:4;stroke-dasharray:none"
       inkscape:connector-curvature="0" />
    <path
       id="path77"
       d="m -55,-35 0,10"
       style="fill:none;stroke:#ff0000;stroke-width:0.34999999;stroke-miterlimit:4;stroke-dasharray:none"
       inkscape:connector-curvature="0" />
    <path
       id="path79"
       d="m -55,-25 4,0"
       style="fill:none;stroke:#ff0000;stroke-width:0.34999999;stroke-miterlimit:4;stroke-dasharray:none"
       inkscape:connector-curvature="0" />
    <path
       id="path81"
       d="m -55,-15 4,0"
       style="fill:none;stroke:#ff0000;stroke-width:0.34999999;stroke-miterlimit:4;stroke-dasharray:none"
       inkscape:connector-curvature="0" />
  </g>
  <g
     transform="matrix(1,0,0,-1,164.69731,-4.8250016)"
     id="g83">
    <path
       id="Shape2DView037"
       d="m 0,-55 0,10"
       style="fill:none;stroke:#ff0000;stroke-width:0.34999999;stroke-miterlimit:4;stroke-dasharray:none"
       inkscape:connector-curvature="0" />
    <path
       id="path86"
       d="m 4,-45 0,10"
       style="fill:none;stroke:#ff0000;stroke-width:0.34999999;stroke-miterlimit:4;stroke-dasharray:none"
       inkscape:connector-curvature="0" />
    <path
       id="path88"
       d="m 4,-25 0,10"
       style="fill:none;stroke:#ff0000;stroke-width:0.34999999;stroke-miterlimit:4;stroke-dasharray:none"
       inkscape:connector-curvature="0" />
    <path
       id="path90"
       d="M 0,-15 0,-5"
       style="fill:none;stroke:#ff0000;stroke-width:0.34999999;stroke-miterlimit:4;stroke-dasharray:none"
       inkscape:connector-curvature="0" />
    <path
       id="path92"
       d="M 10,-5 0,-5"
       style="fill:none;stroke:#ff0000;stroke-width:0.34999999;stroke-miterlimit:4;stroke-dasharray:none"
       inkscape:connector-curvature="0" />
    <path
       id="path94"
       d="m 10,-9 0,4"
       style="fill:none;stroke:#ff0000;stroke-width:0.34999999;stroke-miterlimit:4;stroke-dasharray:none"
       inkscape:connector-curvature="0" />
    <path
       id="path96"
       d="M 20,-9 10,-9"
       style="fill:none;stroke:#ff0000;stroke-width:0.34999999;stroke-miterlimit:4;stroke-dasharray:none"
       inkscape:connector-curvature="0" />
    <path
       id="path98"
       d="m 20,-9 0,4"
       style="fill:none;stroke:#ff0000;stroke-width:0.34999999;stroke-miterlimit:4;stroke-dasharray:none"
       inkscape:connector-curvature="0" />
    <path
       id="path100"
       d="M 30,-5 20,-5"
       style="fill:none;stroke:#ff0000;stroke-width:0.34999999;stroke-miterlimit:4;stroke-dasharray:none"
       inkscape:connector-curvature="0" />
    <path
       id="path102"
       d="m 30,-9 0,4"
       style="fill:none;stroke:#ff0000;stroke-width:0.34999999;stroke-miterlimit:4;stroke-dasharray:none"
       inkscape:connector-curvature="0" />
    <path
       id="path104"
       d="M 40,-9 30,-9"
       style="fill:none;stroke:#ff0000;stroke-width:0.34999999;stroke-miterlimit:4;stroke-dasharray:none"
       inkscape:connector-curvature="0" />
    <path
       id="path106"
       d="m 40,-9 0,4"
       style="fill:none;stroke:#ff0000;stroke-width:0.34999999;stroke-miterlimit:4;stroke-dasharray:none"
       inkscape:connector-curvature="0" />
    <path
       id="path108"
       d="M 50,-5 40,-5"
       style="fill:none;stroke:#ff0000;stroke-width:0.34999999;stroke-miterlimit:4;stroke-dasharray:none"
       inkscape:connector-curvature="0" />
    <path
       id="path110"
       d="m 50,-15 0,10"
       style="fill:none;stroke:#ff0000;stroke-width:0.34999999;stroke-miterlimit:4;stroke-dasharray:none"
       inkscape:connector-curvature="0" />
    <path
       id="path112"
       d="m 46,-15 4,0"
       style="fill:none;stroke:#ff0000;stroke-width:0.34999999;stroke-miterlimit:4;stroke-dasharray:none"
       inkscape:connector-curvature="0" />
    <path
       id="path114"
       d="m 46,-25 0,10"
       style="fill:none;stroke:#ff0000;stroke-width:0.34999999;stroke-miterlimit:4;stroke-dasharray:none"
       inkscape:connector-curvature="0" />
    <path
       id="path116"
       d="m 46,-25 4,0"
       style="fill:none;stroke:#ff0000;stroke-width:0.34999999;stroke-miterlimit:4;stroke-dasharray:none"
       inkscape:connector-curvature="0" />
    <path
       id="path118"
       d="m 50,-35 0,10"
       style="fill:none;stroke:#ff0000;stroke-width:0.34999999;stroke-miterlimit:4;stroke-dasharray:none"
       inkscape:connector-curvature="0" />
    <path
       id="path120"
       d="m 46,-35 4,0"
       style="fill:none;stroke:#ff0000;stroke-width:0.34999999;stroke-miterlimit:4;stroke-dasharray:none"
       inkscape:connector-curvature="0" />
    <path
       id="path122"
       d="m 46,-45 0,10"
       style="fill:none;stroke:#ff0000;stroke-width:0.34999999;stroke-miterlimit:4;stroke-dasharray:none"
       inkscape:connector-curvature="0" />
    <path
       id="path124"
       d="m 46,-45 4,0"
       style="fill:none;stroke:#ff0000;stroke-width:0.34999999;stroke-miterlimit:4;stroke-dasharray:none"
       inkscape:connector-curvature="0" />
    <path
       id="path126"
       d="m 50,-55 0,10"
       style="fill:none;stroke:#ff0000;stroke-width:0.34999999;stroke-miterlimit:4;stroke-dasharray:none"
       inkscape:connector-curvature="0" />
    <path
       id="path128"
       d="m 50,-55 -10,0"
       style="fill:none;stroke:#ff0000;stroke-width:0.34999999;stroke-miterlimit:4;stroke-dasharray:none"
       inkscape:connector-curvature="0" />
    <path
       id="path130"
       d="m 40,-55 0,4"
       style="fill:none;stroke:#ff0000;stroke-width:0.34999999;stroke-miterlimit:4;stroke-dasharray:none"
       inkscape:connector-curvature="0" />
    <path
       id="path132"
       d="m 40,-51 -10,0"
       style="fill:none;stroke:#ff0000;stroke-width:0.34999999;stroke-miterlimit:4;stroke-dasharray:none"
       inkscape:connector-curvature="0" />
    <path
       id="path134"
       d="m 30,-55 0,4"
       style="fill:none;stroke:#ff0000;stroke-width:0.34999999;stroke-miterlimit:4;stroke-dasharray:none"
       inkscape:connector-curvature="0" />
    <path
       id="path136"
       d="m 30,-55 -10,0"
       style="fill:none;stroke:#ff0000;stroke-width:0.34999999;stroke-miterlimit:4;stroke-dasharray:none"
       inkscape:connector-curvature="0" />
    <path
       id="path138"
       d="m 20,-55 0,4"
       style="fill:none;stroke:#ff0000;stroke-width:0.34999999;stroke-miterlimit:4;stroke-dasharray:none"
       inkscape:connector-curvature="0" />
    <path
       id="path140"
       d="m 20,-51 -10,0"
       style="fill:none;stroke:#ff0000;stroke-width:0.34999999;stroke-miterlimit:4;stroke-dasharray:none"
       inkscape:connector-curvature="0" />
    <path
       id="path142"
       d="m 10,-55 0,4"
       style="fill:none;stroke:#ff0000;stroke-width:0.34999999;stroke-miterlimit:4;stroke-dasharray:none"
       inkscape:connector-curvature="0" />
    <path
       id="path144"
       d="M 10,-55 0,-55"
       style="fill:none;stroke:#ff0000;stroke-width:0.34999999;stroke-miterlimit:4;stroke-dasharray:none"
       inkscape:connector-curvature="0" />
    <path
       id="path146"
       d="m 0,-45 4,0"
       style="fill:none;stroke:#ff0000;stroke-width:0.34999999;stroke-miterlimit:4;stroke-dasharray:none"
       inkscape:connector-curvature="0" />
    <path
       id="path148"
       d="m 0,-35 4,0"
       style="fill:none;stroke:#ff0000;stroke-width:0.34999999;stroke-miterlimit:4;stroke-dasharray:none"
       inkscape:connector-curvature="0" />
    <path
       id="path150"
       d="m 0,-35 0,10"
       style="fill:none;stroke:#ff0000;stroke-width:0.34999999;stroke-miterlimit:4;stroke-dasharray:none"
       inkscape:connector-curvature="0" />
    <path
       id="path152"
       d="m 0,-25 4,0"
       style="fill:none;stroke:#ff0000;stroke-width:0.34999999;stroke-miterlimit:4;stroke-dasharray:none"
       inkscape:connector-curvature="0" />
    <path
       id="path154"
       d="m 0,-15 4,0"
       style="fill:none;stroke:#ff0000;stroke-width:0.34999999;stroke-miterlimit:4;stroke-dasharray:none"
       inkscape:connector-curvature="0" />
  </g>
  <g
     transform="matrix(1,0,0,-1,55.660683,-4.8250008)"
     id="g156">
    <path
       id="DWire003"
       d="m 4,-60 6,0 0,-4 10,0 0,4 10,0 0,-4 10,0 0,4 6,0 0,-10 4,0 0,-10 -4,0 0,-10 4,0 0,-10 -4,0 0,-10 -6,0 0,4 -10,0 0,-4 -10,0 0,4 -10,0 0,-4 -6,0 0,10 -4,0 0,10 4,0 0,10 -4,0 0,10 4,0 0,10"
       style="fill:none;stroke:#ff0000;stroke-width:0.34999999;stroke-miterlimit:4;stroke-dasharray:none"
       inkscape:connector-curvature="0" />
  </g>
  <g
     transform="matrix(1,0,0,-1,55.660683,-4.8250008)"
     id="g159">
    <path
       id="DWire002"
       d="m -51,-60 6,0 0,-4 10,0 0,4 10,0 0,-4 10,0 0,4 6,0 0,-10 4,0 0,-10 -4,0 0,-10 4,0 0,-10 -4,0 0,-10 -6,0 0,4 -10,0 0,-4 -10,0 0,4 -10,0 0,-4 -6,0 0,10 -4,0 0,10 4,0 0,10 -4,0 0,10 4,0 0,10"
       style="fill:none;stroke:#ff0000;stroke-width:0.34999999;stroke-miterlimit:4;stroke-dasharray:none"
       inkscape:connector-curvature="0" />
  </g>
</svg>
